<?xml version="1.0" encoding="utf-8"?>
<svg xmlns="http://www.w3.org/2000/svg" viewBox="0 0 841.9 595.3">
    <g>
        <path fill="#61DAFB" d="M421.1,166.8c-1.6,0-3.3,0-5,0c-83.2,0-150.2,66.6-150.2,148.6s67,148.6,150.2,148.6
        c1.6,0,3.3,0,5-0.1c-29.7,38.3-71.5,61.6-117.6,61.6c-83.4,0-151.5-66.7-151.5-148.6S337.7,166.8,421.1,166.8
        c1.7,0,3.4,0,5,0.1C392.4,205.1,364.6,228.4,421.1,166.8z"/>
        <path fill="#61DAFB" d="M421.1,308.9c-39.3,0-71.2-31.8-71.2-71.2c0-39.3,31.8-71.2,71.2-71.2s71.2,31.8,71.2,71.2
        C492.3,277.1,460.4,308.9,421.1,308.9z"/>
        <path fill="#61DAFB" d="M421.1,121.5c-1.6,0-3.3,0-5,0c-83.2,0-150.2,66.6-150.2,148.6s67,148.6,150.2,148.6
        c1.6,0,3.3,0,5-0.1c29.7,38.3,71.5,61.6,117.6,61.6c83.4,0,151.5-66.7,151.5-148.6S505.1,121.5,421.1,121.5z"/>
        <path fill="#61DAFB" d="M421.1,273.6c-39.3,0-71.2-31.8-71.2-71.2c0-39.3,31.8-71.2,71.2-71.2s71.2,31.8,71.2,71.2
        C492.3,241.9,460.4,273.6,421.1,273.6z"/>
        <path fill="#61DAFB" d="M421.1,0c-233.4,0-422.2,188.8-422.2,422.2c0,233.4,188.8,422.2,422.2,422.2c233.4,0,422.2-188.8,422.2-422.2
        C843.3,188.8,654.5,0,421.1,0z M421.1,603.5c-100.5,0-194.3-46.8-255.6-120.5c30.6,38.5,66.1,71.7,106.5,99.1
        C317.8,608.9,368.1,603.5,421.1,603.5z M421.1,523.2c-39.3,0-71.2-31.8-71.2-71.2s31.8-71.2,71.2-71.2
        c39.3,0,71.2,31.8,71.2,71.2S460.4,523.2,421.1,523.2z M421.1,375.8c-39.3,0-71.2-31.8-71.2-71.2c0-39.3,31.8-71.2,71.2-71.2
        s71.2,31.8,71.2,71.2C492.3,344,460.4,375.8,421.1,375.8z"/>
    </g>
</svg>
